# xmcd
#
# Track frame offsets: 
#        150
#        18387
#        34790
#        62495
#        76425
#        96615
#        119630
#        151167
#        172107
#        190820
#        210177
#        222665
#
# Disc length: 3234 seconds
#
# Revision: 7
# Processed by: cddbd v1.5.2PL0 Copyright (c) Steve Scherf et al.
# Submitted via: ExactAudioCopy v0.99pb4
#
DISCID=a70ca00c
DTITLE=Blues Traveler - Bridge
DYEAR=2001
DGENRE=Blues
TTITLE0=Back in The Day
TTITLE1=Girl Inside My Head
TTITLE2=Rage
TTITLE3=Just For Me
TTITLE4=You Reach Me
TTITLE5=All Hands
TTITLE6=Pretty Angry
TTITLE7=The Way
TTITLE8=You Lost Me There
TTITLE9=Sadly A Fiction
TTITLE10=You're Burning Me
TTITLE11=Decision Of The Skies
EXTD=
EXTT0=
EXTT1=
EXTT2=
EXTT3=
EXTT4=
EXTT5=
EXTT6=for J. Sheehan
EXTT7=
EXTT8=
EXTT9=
EXTT10=
EXTT11=
PLAYORDER=
